<?xml version="1.0" encoding="UTF-8" standalone="no"?>
<!-- Created with Inkscape (http://www.inkscape.org/) -->

<svg
   width="44.077477mm"
   height="66.53331mm"
   viewBox="0 0 44.077477 66.53331"
   version="1.1"
   id="svg1"
   xmlns="http://www.w3.org/2000/svg"
   xmlns:svg="http://www.w3.org/2000/svg">
  <defs
     id="defs1" />
  <g
     id="layer1"
     transform="translate(-323.03648,-307.53188)">
    <g
       id="g28-0-0"
       transform="translate(60.834418,60.979607)">
      <rect
         style="fill:#197d58;fill-opacity:1;stroke:none;stroke-width:0.0562218;stroke-linecap:round;stroke-miterlimit:5.6"
         id="rect1-0-9-9-0-4-4-4-2-9-1-8-6-2"
         width="16.307348"
         height="16.307348"
         x="16.987101"
         y="371.04349"
         transform="matrix(0.67572527,-0.73715356,0.67572527,0.73715356,0,0)" />
      <path
         id="rect26-7-0-4"
         style="fill:#1f372e;fill-opacity:1;stroke-width:1.89074;stroke-linejoin:round;stroke-miterlimit:5.6"
         d="m 284.24087,246.55226 c -7.8585,0.0199 -14.35357,6.13369 -14.84812,13.97664 l -0.0673,0.9388 v 21.23878 h 6.49759 l 0.038,-21.00189 c 0.27913,-4.42655 3.94449,-7.87689 8.37982,-7.88807 4.44269,7.4e-4 8.11973,3.45416 8.39933,7.88807 l 0.0189,21.00189 h 6.49708 V 261.4677 l -0.0335,-0.9388 c -0.49539,-7.85599 -7.01044,-13.97467 -14.88203,-13.97664 z" />
      <g
         id="g22-2-6-6-3-8"
         transform="matrix(1.0096481,0,0,1.0096397,225.94414,222.5056)">
        <g
           id="g14-4-48-2-5-3-3"
           transform="translate(2.748277,-132.53539)">
          <path
             id="rect1-5-8-3-6-4-39-7-7-5-9"
             style="fill:#f3840c;fill-opacity:1;stroke:none;stroke-width:0.136829;stroke-linecap:round;stroke-miterlimit:5.6"
             d="m 35.147561,182.56303 h 39.6875 l -19.84375,39.6875 z" />
        </g>
        <path
           id="rect1-5-8-3-6-2-7-7-0-0-3-0-0"
           style="fill:#fede80;fill-opacity:1;stroke:none;stroke-width:0.136829;stroke-linecap:round;stroke-miterlimit:5.6"
           d="m 57.905706,73.42983 a 1.9399605,1.9399605 0 0 0 -1.60507,0.85524 h -6.276103 l 1.085205,2.17041 h 5.191415 a 1.9399605,1.9399605 0 0 0 1.604553,0.85473 1.9399605,1.9399605 0 0 0 1.939933,-1.93993 1.9399605,1.9399605 0 0 0 -1.939933,-1.94045 z" />
        <path
           id="rect1-5-8-3-6-2-0-3-522-3-4-2-5"
           style="fill:#fede80;fill-opacity:1;stroke:none;stroke-width:0.136829;stroke-linecap:round;stroke-miterlimit:5.6"
           d="m 62.26668,63.98544 a 1.9399605,1.9399605 0 0 0 -1.939933,1.93993 1.9399605,1.9399605 0 0 0 1.939933,1.93994 1.9399605,1.9399605 0 0 0 1.607654,-0.85473 h 5.217769 l 1.085205,-2.17041 H 63.871233 A 1.9399605,1.9399605 0 0 0 62.26668,63.98544 Z" />
        <path
           id="rect1-5-8-3-6-2-8-0-7-9-3-3-2"
           style="fill:#fede80;fill-opacity:1;stroke:none;stroke-width:0.136829;stroke-linecap:round;stroke-miterlimit:5.6"
           d="m 50.229689,58.63176 a 1.9399605,1.9399605 0 0 0 -1.60507,0.85473 h -5.999117 l 1.085205,2.17041 h 4.914429 a 1.9399605,1.9399605 0 0 0 1.604553,0.85473 1.9399605,1.9399605 0 0 0 1.939933,-1.93993 1.9399605,1.9399605 0 0 0 -1.939933,-1.93994 z" />
      </g>
      <rect
         style="fill:#1f372e;fill-opacity:1;stroke:none;stroke-width:0.0562218;stroke-linecap:round;stroke-miterlimit:5.6"
         id="rect1-0-9-78-2-9-9-4-2-2-5-2-2"
         width="16.30735"
         height="16.30735"
         x="16.987215"
         y="387.35095"
         transform="matrix(0.67572526,-0.73715356,0.67572526,0.73715356,0,0)" />
      <path
         id="path27-9-7-7"
         style="fill:#ececec;fill-opacity:1;stroke-width:1.40288;stroke-linejoin:round;stroke-miterlimit:5.6"
         d="m 284.24081,269.73399 c -1.87863,10e-6 -3.40156,1.52294 -3.40157,3.40157 8.2e-4,1.16874 0.60158,2.25522 1.591,2.87731 v 10.13018 l 3.62114,-0.005 v -10.12482 c 0.98942,-0.62209 1.59018,-1.70857 1.591,-2.87731 -10e-6,-1.87863 -1.52294,-3.40156 -3.40157,-3.40157 z" />
      <rect
         style="fill:#197d58;fill-opacity:1;stroke:none;stroke-width:0.0562218;stroke-linecap:round;stroke-miterlimit:5.6"
         id="rect1-0-9-7-6-5-9-9-9-0-7-7-1-37"
         width="16.307348"
         height="16.307348"
         x="33.29467"
         y="387.35107"
         transform="matrix(0.67572527,-0.73715356,0.67572527,0.73715356,0,0)" />
    </g>
  </g>
</svg>
